<?xml version="1.0" encoding="UTF-8" standalone="no"?>
<!DOCTYPE svg PUBLIC "-//W3C//DTD SVG 1.1//EN"
 "http://www.w3.org/Graphics/SVG/1.1/DTD/svg11.dtd">
<!-- Generated by graphviz version 2.40.1 (0)
 -->
<!-- Title: 10 Pages: 1 -->
<svg width="350pt" height="260pt"
 viewBox="0.00 0.00 350.00 260.00" xmlns="http://www.w3.org/2000/svg" xmlns:xlink="http://www.w3.org/1999/xlink">
<g id="graph0" class="graph" transform="scale(1 1) rotate(0) translate(4 256)">
<title>10</title>
<polygon fill="#ffffff" stroke="transparent" points="-4,4 -4,-256 346,-256 346,4 -4,4"/>
<!-- 8 -->
<g id="node1" class="node">
<title>8</title>
<ellipse fill="none" stroke="#000000" cx="135" cy="-234" rx="27" ry="18"/>
<text text-anchor="middle" x="135" y="-230.3" font-family="Times,serif" font-size="14.00" fill="#000000">8</text>
</g>
<!-- 6 -->
<g id="node2" class="node">
<title>6</title>
<ellipse fill="none" stroke="#ff0000" cx="99" cy="-162" rx="27" ry="18"/>
<text text-anchor="middle" x="99" y="-158.3" font-family="Times,serif" font-size="14.00" fill="#000000">6</text>
</g>
<!-- 8&#45;&gt;6 -->
<g id="edge1" class="edge">
<title>8&#45;&gt;6</title>
<path fill="none" stroke="#000000" d="M121.5101,-218.3771C116.2925,-209.9398 110.6601,-199.276 106.1698,-189.4994"/>
<polygon fill="#000000" stroke="#000000" points="109.3009,-187.9219 102.1179,-180.1338 102.8764,-190.7014 109.3009,-187.9219"/>
</g>
<!-- 10 -->
<g id="node3" class="node">
<title>10</title>
<ellipse fill="none" stroke="#ff0000" cx="171" cy="-162" rx="27" ry="18"/>
<text text-anchor="middle" x="171" y="-158.3" font-family="Times,serif" font-size="14.00" fill="#000000">10</text>
</g>
<!-- 8&#45;&gt;10 -->
<g id="edge2" class="edge">
<title>8&#45;&gt;10</title>
<path fill="none" stroke="#000000" d="M138.1319,-215.8314C141.6902,-206.9918 146.9058,-196.2334 152.2242,-186.6648"/>
<polygon fill="#000000" stroke="#000000" points="155.2884,-188.3581 157.3041,-177.9568 149.242,-184.8309 155.2884,-188.3581"/>
</g>
<!-- 6&#45;&gt;8 -->
<g id="edge3" class="edge">
<title>6&#45;&gt;8</title>
<path fill="none" stroke="#c0c0c0" d="M112.6959,-177.9568C117.8674,-186.3599 123.4248,-196.9015 127.8612,-206.5681"/>
<polygon fill="#c0c0c0" stroke="#c0c0c0" points="124.6856,-208.0428 131.8681,-215.8314 131.1103,-205.2637 124.6856,-208.0428"/>
</g>
<!-- 5 -->
<g id="node4" class="node">
<title>5</title>
<ellipse fill="none" stroke="#000000" cx="27" cy="-90" rx="27" ry="18"/>
<text text-anchor="middle" x="27" y="-86.3" font-family="Times,serif" font-size="14.00" fill="#000000">5</text>
</g>
<!-- 6&#45;&gt;5 -->
<g id="edge4" class="edge">
<title>6&#45;&gt;5</title>
<path fill="none" stroke="#000000" d="M80.43,-148.7941C69.4253,-139.1624 55.7428,-125.8327 44.8776,-114.3002"/>
<polygon fill="#000000" stroke="#000000" points="47.2144,-111.6702 37.8732,-106.6709 42.0579,-116.4043 47.2144,-111.6702"/>
</g>
<!-- 7 -->
<g id="node5" class="node">
<title>7</title>
<ellipse fill="none" stroke="#000000" cx="99" cy="-90" rx="27" ry="18"/>
<text text-anchor="middle" x="99" y="-86.3" font-family="Times,serif" font-size="14.00" fill="#000000">7</text>
</g>
<!-- 6&#45;&gt;7 -->
<g id="edge5" class="edge">
<title>6&#45;&gt;7</title>
<path fill="none" stroke="#000000" d="M93.0843,-144.2022C92.2798,-136.1807 92.0571,-126.5231 92.4162,-117.5957"/>
<polygon fill="#000000" stroke="#000000" points="95.9097,-117.8099 93.105,-107.593 88.9262,-117.3289 95.9097,-117.8099"/>
</g>
<!-- 10&#45;&gt;8 -->
<g id="edge8" class="edge">
<title>10&#45;&gt;8</title>
<path fill="none" stroke="#c0c0c0" d="M167.8821,-180.1338C164.2892,-189.0651 159.0004,-199.9618 153.6218,-209.6118"/>
<polygon fill="#c0c0c0" stroke="#c0c0c0" points="150.5221,-207.9789 148.4899,-218.3771 156.5629,-211.5158 150.5221,-207.9789"/>
</g>
<!-- 9 -->
<g id="node6" class="node">
<title>9</title>
<ellipse fill="none" stroke="#000000" cx="171" cy="-90" rx="27" ry="18"/>
<text text-anchor="middle" x="171" y="-86.3" font-family="Times,serif" font-size="14.00" fill="#000000">9</text>
</g>
<!-- 10&#45;&gt;9 -->
<g id="edge9" class="edge">
<title>10&#45;&gt;9</title>
<path fill="none" stroke="#000000" d="M165.0843,-144.2022C164.2798,-136.1807 164.0571,-126.5231 164.4162,-117.5957"/>
<polygon fill="#000000" stroke="#000000" points="167.9097,-117.8099 165.105,-107.593 160.9262,-117.3289 167.9097,-117.8099"/>
</g>
<!-- 16 -->
<g id="node7" class="node">
<title>16</title>
<ellipse fill="none" stroke="#000000" cx="243" cy="-90" rx="27" ry="18"/>
<text text-anchor="middle" x="243" y="-86.3" font-family="Times,serif" font-size="14.00" fill="#000000">16</text>
</g>
<!-- 10&#45;&gt;16 -->
<g id="edge10" class="edge">
<title>10&#45;&gt;16</title>
<path fill="none" stroke="#000000" d="M181.8984,-145.3008C191.2493,-134.8049 204.7437,-121.2014 216.7586,-110.1132"/>
<polygon fill="#000000" stroke="#000000" points="219.2934,-112.5406 224.3821,-103.2478 214.609,-107.339 219.2934,-112.5406"/>
</g>
<!-- 5&#45;&gt;6 -->
<g id="edge6" class="edge">
<title>5&#45;&gt;6</title>
<path fill="none" stroke="#c0c0c0" d="M45.6179,-103.2478C56.6092,-112.8718 70.2603,-126.1717 81.1073,-137.6837"/>
<polygon fill="#c0c0c0" stroke="#c0c0c0" points="78.76,-140.3022 88.1016,-145.3008 83.916,-135.5677 78.76,-140.3022"/>
</g>
<!-- 7&#45;&gt;6 -->
<g id="edge7" class="edge">
<title>7&#45;&gt;6</title>
<path fill="none" stroke="#c0c0c0" d="M104.895,-107.593C105.7094,-115.5865 105.942,-125.2363 105.5928,-134.1759"/>
<polygon fill="#c0c0c0" stroke="#c0c0c0" points="102.0976,-133.9891 104.9157,-144.2022 109.0817,-134.4608 102.0976,-133.9891"/>
</g>
<!-- 9&#45;&gt;10 -->
<g id="edge11" class="edge">
<title>9&#45;&gt;10</title>
<path fill="none" stroke="#c0c0c0" d="M176.895,-107.593C177.7094,-115.5865 177.942,-125.2363 177.5928,-134.1759"/>
<polygon fill="#c0c0c0" stroke="#c0c0c0" points="174.0976,-133.9891 176.9157,-144.2022 181.0817,-134.4608 174.0976,-133.9891"/>
</g>
<!-- 9.5 -->
<g id="node8" class="node">
<title>9.5</title>
<ellipse fill="none" stroke="#ff0000" cx="171" cy="-18" rx="27" ry="18"/>
<text text-anchor="middle" x="171" y="-14.3" font-family="Times,serif" font-size="14.00" fill="#000000">9.5</text>
</g>
<!-- 9&#45;&gt;9.5 -->
<g id="edge12" class="edge">
<title>9&#45;&gt;9.5</title>
<path fill="none" stroke="#000000" d="M165.0843,-72.2022C164.2798,-64.1807 164.0571,-54.5231 164.4162,-45.5957"/>
<polygon fill="#000000" stroke="#000000" points="167.9097,-45.8099 165.105,-35.593 160.9262,-45.3289 167.9097,-45.8099"/>
</g>
<!-- 16&#45;&gt;10 -->
<g id="edge14" class="edge">
<title>16&#45;&gt;10</title>
<path fill="none" stroke="#c0c0c0" d="M232.1268,-106.6709C222.7655,-117.1813 209.2396,-130.8163 197.2047,-141.9207"/>
<polygon fill="#c0c0c0" stroke="#c0c0c0" points="194.6601,-139.5021 189.57,-148.7941 199.3437,-144.7044 194.6601,-139.5021"/>
</g>
<!-- 15 -->
<g id="node9" class="node">
<title>15</title>
<ellipse fill="none" stroke="#ff0000" cx="243" cy="-18" rx="27" ry="18"/>
<text text-anchor="middle" x="243" y="-14.3" font-family="Times,serif" font-size="14.00" fill="#000000">15</text>
</g>
<!-- 16&#45;&gt;15 -->
<g id="edge15" class="edge">
<title>16&#45;&gt;15</title>
<path fill="none" stroke="#000000" d="M237.0843,-72.2022C236.2798,-64.1807 236.0571,-54.5231 236.4162,-45.5957"/>
<polygon fill="#000000" stroke="#000000" points="239.9097,-45.8099 237.105,-35.593 232.9262,-45.3289 239.9097,-45.8099"/>
</g>
<!-- 17 -->
<g id="node10" class="node">
<title>17</title>
<ellipse fill="none" stroke="#ff0000" cx="315" cy="-18" rx="27" ry="18"/>
<text text-anchor="middle" x="315" y="-14.3" font-family="Times,serif" font-size="14.00" fill="#000000">17</text>
</g>
<!-- 16&#45;&gt;17 -->
<g id="edge16" class="edge">
<title>16&#45;&gt;17</title>
<path fill="none" stroke="#000000" d="M253.8984,-73.3008C263.2493,-62.8049 276.7437,-49.2014 288.7586,-38.1132"/>
<polygon fill="#000000" stroke="#000000" points="291.2934,-40.5406 296.3821,-31.2478 286.609,-35.339 291.2934,-40.5406"/>
</g>
<!-- 9.5&#45;&gt;9 -->
<g id="edge13" class="edge">
<title>9.5&#45;&gt;9</title>
<path fill="none" stroke="#c0c0c0" d="M176.895,-35.593C177.7094,-43.5865 177.942,-53.2363 177.5928,-62.1759"/>
<polygon fill="#c0c0c0" stroke="#c0c0c0" points="174.0976,-61.9891 176.9157,-72.2022 181.0817,-62.4608 174.0976,-61.9891"/>
</g>
<!-- 15&#45;&gt;16 -->
<g id="edge17" class="edge">
<title>15&#45;&gt;16</title>
<path fill="none" stroke="#c0c0c0" d="M248.895,-35.593C249.7094,-43.5865 249.942,-53.2363 249.5928,-62.1759"/>
<polygon fill="#c0c0c0" stroke="#c0c0c0" points="246.0976,-61.9891 248.9157,-72.2022 253.0817,-62.4608 246.0976,-61.9891"/>
</g>
<!-- 17&#45;&gt;16 -->
<g id="edge18" class="edge">
<title>17&#45;&gt;16</title>
<path fill="none" stroke="#c0c0c0" d="M304.1268,-34.6709C294.7655,-45.1813 281.2396,-58.8163 269.2047,-69.9207"/>
<polygon fill="#c0c0c0" stroke="#c0c0c0" points="266.6601,-67.5021 261.57,-76.7941 271.3437,-72.7044 266.6601,-67.5021"/>
</g>
</g>
</svg>
