<?xml version="1.0" encoding="UTF-8" standalone="no"?>
<!DOCTYPE svg PUBLIC "-//W3C//DTD SVG 1.1//EN"
 "http://www.w3.org/Graphics/SVG/1.1/DTD/svg11.dtd">
<!-- Generated by graphviz version 2.40.1 (0)
 -->
<!-- Title: 9 Pages: 1 -->
<svg width="278pt" height="260pt"
 viewBox="0.00 0.00 278.00 260.00" xmlns="http://www.w3.org/2000/svg" xmlns:xlink="http://www.w3.org/1999/xlink">
<g id="graph0" class="graph" transform="scale(1 1) rotate(0) translate(4 256)">
<title>9</title>
<polygon fill="#ffffff" stroke="transparent" points="-4,4 -4,-256 274,-256 274,4 -4,4"/>
<!-- 10 -->
<g id="node1" class="node">
<title>10</title>
<ellipse fill="none" stroke="#000000" cx="135" cy="-234" rx="27" ry="18"/>
<text text-anchor="middle" x="135" y="-230.3" font-family="Times,serif" font-size="14.00" fill="#000000">10</text>
</g>
<!-- 6 -->
<g id="node2" class="node">
<title>6</title>
<ellipse fill="none" stroke="#ff0000" cx="99" cy="-162" rx="27" ry="18"/>
<text text-anchor="middle" x="99" y="-158.3" font-family="Times,serif" font-size="14.00" fill="#000000">6</text>
</g>
<!-- 10&#45;&gt;6 -->
<g id="edge1" class="edge">
<title>10&#45;&gt;6</title>
<path fill="none" stroke="#000000" d="M121.5101,-218.3771C116.2925,-209.9398 110.6601,-199.276 106.1698,-189.4994"/>
<polygon fill="#000000" stroke="#000000" points="109.3009,-187.9219 102.1179,-180.1338 102.8764,-190.7014 109.3009,-187.9219"/>
</g>
<!-- 16 -->
<g id="node3" class="node">
<title>16</title>
<ellipse fill="none" stroke="#000000" cx="171" cy="-162" rx="27" ry="18"/>
<text text-anchor="middle" x="171" y="-158.3" font-family="Times,serif" font-size="14.00" fill="#000000">16</text>
</g>
<!-- 10&#45;&gt;16 -->
<g id="edge2" class="edge">
<title>10&#45;&gt;16</title>
<path fill="none" stroke="#000000" d="M138.1319,-215.8314C141.6902,-206.9918 146.9058,-196.2334 152.2242,-186.6648"/>
<polygon fill="#000000" stroke="#000000" points="155.2884,-188.3581 157.3041,-177.9568 149.242,-184.8309 155.2884,-188.3581"/>
</g>
<!-- 6&#45;&gt;10 -->
<g id="edge3" class="edge">
<title>6&#45;&gt;10</title>
<path fill="none" stroke="#c0c0c0" d="M112.6959,-177.9568C117.8674,-186.3599 123.4248,-196.9015 127.8612,-206.5681"/>
<polygon fill="#c0c0c0" stroke="#c0c0c0" points="124.6856,-208.0428 131.8681,-215.8314 131.1103,-205.2637 124.6856,-208.0428"/>
</g>
<!-- 5 -->
<g id="node4" class="node">
<title>5</title>
<ellipse fill="none" stroke="#000000" cx="27" cy="-90" rx="27" ry="18"/>
<text text-anchor="middle" x="27" y="-86.3" font-family="Times,serif" font-size="14.00" fill="#000000">5</text>
</g>
<!-- 6&#45;&gt;5 -->
<g id="edge4" class="edge">
<title>6&#45;&gt;5</title>
<path fill="none" stroke="#000000" d="M80.43,-148.7941C69.4253,-139.1624 55.7428,-125.8327 44.8776,-114.3002"/>
<polygon fill="#000000" stroke="#000000" points="47.2144,-111.6702 37.8732,-106.6709 42.0579,-116.4043 47.2144,-111.6702"/>
</g>
<!-- 8 -->
<g id="node5" class="node">
<title>8</title>
<ellipse fill="none" stroke="#000000" cx="99" cy="-90" rx="27" ry="18"/>
<text text-anchor="middle" x="99" y="-86.3" font-family="Times,serif" font-size="14.00" fill="#000000">8</text>
</g>
<!-- 6&#45;&gt;8 -->
<g id="edge5" class="edge">
<title>6&#45;&gt;8</title>
<path fill="none" stroke="#000000" d="M93.0843,-144.2022C92.2798,-136.1807 92.0571,-126.5231 92.4162,-117.5957"/>
<polygon fill="#000000" stroke="#000000" points="95.9097,-117.8099 93.105,-107.593 88.9262,-117.3289 95.9097,-117.8099"/>
</g>
<!-- 16&#45;&gt;10 -->
<g id="edge12" class="edge">
<title>16&#45;&gt;10</title>
<path fill="none" stroke="#c0c0c0" d="M167.8821,-180.1338C164.2892,-189.0651 159.0004,-199.9618 153.6218,-209.6118"/>
<polygon fill="#c0c0c0" stroke="#c0c0c0" points="150.5221,-207.9789 148.4899,-218.3771 156.5629,-211.5158 150.5221,-207.9789"/>
</g>
<!-- 15 -->
<g id="node8" class="node">
<title>15</title>
<ellipse fill="none" stroke="#ff0000" cx="171" cy="-90" rx="27" ry="18"/>
<text text-anchor="middle" x="171" y="-86.3" font-family="Times,serif" font-size="14.00" fill="#000000">15</text>
</g>
<!-- 16&#45;&gt;15 -->
<g id="edge13" class="edge">
<title>16&#45;&gt;15</title>
<path fill="none" stroke="#000000" d="M165.0843,-144.2022C164.2798,-136.1807 164.0571,-126.5231 164.4162,-117.5957"/>
<polygon fill="#000000" stroke="#000000" points="167.9097,-117.8099 165.105,-107.593 160.9262,-117.3289 167.9097,-117.8099"/>
</g>
<!-- 17 -->
<g id="node9" class="node">
<title>17</title>
<ellipse fill="none" stroke="#ff0000" cx="243" cy="-90" rx="27" ry="18"/>
<text text-anchor="middle" x="243" y="-86.3" font-family="Times,serif" font-size="14.00" fill="#000000">17</text>
</g>
<!-- 16&#45;&gt;17 -->
<g id="edge14" class="edge">
<title>16&#45;&gt;17</title>
<path fill="none" stroke="#000000" d="M181.8984,-145.3008C191.2493,-134.8049 204.7437,-121.2014 216.7586,-110.1132"/>
<polygon fill="#000000" stroke="#000000" points="219.2934,-112.5406 224.3821,-103.2478 214.609,-107.339 219.2934,-112.5406"/>
</g>
<!-- 5&#45;&gt;6 -->
<g id="edge6" class="edge">
<title>5&#45;&gt;6</title>
<path fill="none" stroke="#c0c0c0" d="M45.6179,-103.2478C56.6092,-112.8718 70.2603,-126.1717 81.1073,-137.6837"/>
<polygon fill="#c0c0c0" stroke="#c0c0c0" points="78.76,-140.3022 88.1016,-145.3008 83.916,-135.5677 78.76,-140.3022"/>
</g>
<!-- 8&#45;&gt;6 -->
<g id="edge7" class="edge">
<title>8&#45;&gt;6</title>
<path fill="none" stroke="#c0c0c0" d="M104.895,-107.593C105.7094,-115.5865 105.942,-125.2363 105.5928,-134.1759"/>
<polygon fill="#c0c0c0" stroke="#c0c0c0" points="102.0976,-133.9891 104.9157,-144.2022 109.0817,-134.4608 102.0976,-133.9891"/>
</g>
<!-- 7 -->
<g id="node6" class="node">
<title>7</title>
<ellipse fill="none" stroke="#ff0000" cx="63" cy="-18" rx="27" ry="18"/>
<text text-anchor="middle" x="63" y="-14.3" font-family="Times,serif" font-size="14.00" fill="#000000">7</text>
</g>
<!-- 8&#45;&gt;7 -->
<g id="edge8" class="edge">
<title>8&#45;&gt;7</title>
<path fill="none" stroke="#000000" d="M85.5101,-74.3771C80.2925,-65.9398 74.6601,-55.276 70.1698,-45.4994"/>
<polygon fill="#000000" stroke="#000000" points="73.3009,-43.9219 66.1179,-36.1338 66.8764,-46.7014 73.3009,-43.9219"/>
</g>
<!-- 9 -->
<g id="node7" class="node">
<title>9</title>
<ellipse fill="none" stroke="#ff0000" cx="135" cy="-18" rx="27" ry="18"/>
<text text-anchor="middle" x="135" y="-14.3" font-family="Times,serif" font-size="14.00" fill="#000000">9</text>
</g>
<!-- 8&#45;&gt;9 -->
<g id="edge9" class="edge">
<title>8&#45;&gt;9</title>
<path fill="none" stroke="#000000" d="M102.1319,-71.8314C105.6902,-62.9918 110.9058,-52.2334 116.2242,-42.6648"/>
<polygon fill="#000000" stroke="#000000" points="119.2884,-44.3581 121.3041,-33.9568 113.242,-40.8309 119.2884,-44.3581"/>
</g>
<!-- 7&#45;&gt;8 -->
<g id="edge10" class="edge">
<title>7&#45;&gt;8</title>
<path fill="none" stroke="#c0c0c0" d="M76.6959,-33.9568C81.8674,-42.3599 87.4248,-52.9015 91.8612,-62.5681"/>
<polygon fill="#c0c0c0" stroke="#c0c0c0" points="88.6856,-64.0428 95.8681,-71.8314 95.1103,-61.2637 88.6856,-64.0428"/>
</g>
<!-- 9&#45;&gt;8 -->
<g id="edge11" class="edge">
<title>9&#45;&gt;8</title>
<path fill="none" stroke="#c0c0c0" d="M131.8821,-36.1338C128.2892,-45.0651 123.0004,-55.9618 117.6218,-65.6118"/>
<polygon fill="#c0c0c0" stroke="#c0c0c0" points="114.5221,-63.9789 112.4899,-74.3771 120.5629,-67.5158 114.5221,-63.9789"/>
</g>
<!-- 15&#45;&gt;16 -->
<g id="edge15" class="edge">
<title>15&#45;&gt;16</title>
<path fill="none" stroke="#c0c0c0" d="M176.895,-107.593C177.7094,-115.5865 177.942,-125.2363 177.5928,-134.1759"/>
<polygon fill="#c0c0c0" stroke="#c0c0c0" points="174.0976,-133.9891 176.9157,-144.2022 181.0817,-134.4608 174.0976,-133.9891"/>
</g>
<!-- 17&#45;&gt;16 -->
<g id="edge16" class="edge">
<title>17&#45;&gt;16</title>
<path fill="none" stroke="#c0c0c0" d="M232.1268,-106.6709C222.7655,-117.1813 209.2396,-130.8163 197.2047,-141.9207"/>
<polygon fill="#c0c0c0" stroke="#c0c0c0" points="194.6601,-139.5021 189.57,-148.7941 199.3437,-144.7044 194.6601,-139.5021"/>
</g>
</g>
</svg>
